<svg width="16" height="12" viewBox="0 0 16 12" fill="none" xmlns="http://www.w3.org/2000/svg">
<path fill-rule="evenodd" clip-rule="evenodd" d="M8.30052 2.69635C10.5349 2.69645 12.6839 3.55501 14.3033 5.09456C14.4252 5.21342 14.6201 5.21192 14.7402 5.0912L15.9059 3.91479C15.9667 3.85356 16.0006 3.77062 16.0001 3.68432C15.9996 3.59803 15.9647 3.51549 15.9032 3.45498C11.6529 -0.618333 4.94749 -0.618333 0.697169 3.45498C0.635599 3.51544 0.60067 3.59796 0.600105 3.68425C0.59953 3.77055 0.633381 3.85351 0.694144 3.91479L1.86015 5.0912C1.98016 5.21211 2.17523 5.21361 2.2971 5.09456C3.91667 3.5549 6.06589 2.69635 8.30052 2.69635ZM8.30052 6.52374C9.52819 6.52366 10.712 6.97998 11.622 7.80402C11.7451 7.92097 11.939 7.91843 12.059 7.7983L13.2233 6.62189C13.2846 6.56018 13.3187 6.47647 13.3178 6.38948C13.3169 6.3025 13.2812 6.2195 13.2186 6.15905C10.4474 3.58131 6.15594 3.58131 3.38478 6.15905C3.32218 6.2195 3.28647 6.30254 3.28565 6.38955C3.28482 6.47657 3.31897 6.56027 3.38041 6.62189L4.54439 7.7983C4.66437 7.91843 4.85826 7.92097 4.98134 7.80402C5.89075 6.98052 7.07366 6.52425 8.30052 6.52374ZM10.5381 9.33134C10.6003 9.27023 10.6346 9.18613 10.6328 9.0989C10.6311 9.01167 10.5934 8.92904 10.5286 8.87052C9.24242 7.78262 7.35862 7.78262 6.07239 8.87052C6.00763 8.929 5.96987 9.0116 5.96802 9.09883C5.96618 9.18606 6.00041 9.27018 6.06264 9.33134L8.077 11.3639C8.13604 11.4236 8.21653 11.4572 8.30052 11.4572C8.38451 11.4572 8.46499 11.4236 8.52403 11.3639L10.5381 9.33134Z" fill="black"/>
</svg>
